<svg version="1.1"
     baseProfile="full"
     width="500" height="710"
     xmlns="http://www.w3.org/2000/svg">


	<rect width="100%" height="100%" style="opacity:0.2;fill:#9fc9a7;"/>

  <text x="50%" y="30" font-size="30" font-weight="bold" text-anchor="middle" fill="black">Register Allocation Table - x86</text>

	<!-- registers -->
	<svg x="20%" y="50">
		<svg x="0" y="0" width="300" height="100">
			<rect x="0" y="0" width="100%" height="50%" fill="#9f1b46" stroke="black" stroke-width="5"/>
			<text x="50%" y="30%" font-size="20" font-weight="bold" text-anchor="middle" fill="black">rax (return value)</text>
		</svg>
		<svg x="0" y="50" width="300" height="100">
			<rect x="0" y="0" width="100%" height="50%" fill="#099143" stroke="black" stroke-width="5"/>
			<text x="50%" y="30%" font-size="20" font-weight="bold" text-anchor="middle" fill="black">rbx (scratch register)</text>
		</svg>
		<svg x="0" y="100" width="300" height="100">
			<rect x="0" y="0" width="100%" height="50%" fill="#9fc9a7" stroke="black" stroke-width="5"/>
			<text x="50%" y="30%" font-size="20" font-weight="bold" text-anchor="middle" fill="black">rcx</text>
		</svg>
		<svg x="0" y="150" width="300" height="100">
			<rect x="0" y="0" width="100%" height="50%" fill="#9fc9a7" stroke="black" stroke-width="5"/>
			<text x="50%" y="30%" font-size="20" font-weight="bold" text-anchor="middle" fill="black">rdx</text>
		</svg>
		<svg x="0" y="200" width="300" height="100">
			<rect x="0" y="0" width="100%" height="50%" fill="#9fc9a7" stroke="black" stroke-width="5"/>
			<text x="50%" y="30%" font-size="20" font-weight="bold" text-anchor="middle" fill="black">rdi</text>
		</svg>
		<svg x="0" y="250" width="300" height="100">
			<rect x="0" y="0" width="100%" height="50%" fill="#9fc9a7" stroke="black" stroke-width="5"/>
			<text x="50%" y="30%" font-size="20" font-weight="bold" text-anchor="middle" fill="black">rsi</text>
		</svg>
		<svg x="0" y="300" width="300" height="100">
			<rect x="0" y="0" width="100%" height="50%" fill="#9fc9a7" stroke="black" stroke-width="5"/>
			<text x="50%" y="30%" font-size="20" font-weight="bold" text-anchor="middle" fill="black">rsp</text>
		</svg>
		<svg x="0" y="350" width="300" height="100">
			<rect x="0" y="0" width="100%" height="50%" fill="#9fc955" stroke="black" stroke-width="5"/>
			<text x="50%" y="30%" font-size="20" font-weight="bold" text-anchor="middle" fill="black">rbp (stack frame pointer)</text>
		</svg>
		<svg x="0" y="400" width="300" height="100">
			<rect x="0" y="0" width="100%" height="50%" fill="#9fc9a7" stroke="black" stroke-width="5"/>
			<text x="50%" y="30%" font-size="20" font-weight="bold" text-anchor="middle" fill="black">rip</text>
		</svg>
		<svg x="0" y="500" width="300" height="100">
			<rect x="0" y="0" width="100%" height="50%" fill="#9fc9a7" stroke="black" stroke-width="5"/>
			<text x="50%" y="30%" font-size="20" font-weight="bold" text-anchor="middle" fill="black">r8</text>
		</svg>
		<svg x="0" y="550" width="300" height="100">
			<rect x="0" y="0" width="100%" height="50%" fill="#9fc9a7" stroke="black" stroke-width="5"/>
			<text x="50%" y="30%" font-size="20" font-weight="bold" text-anchor="middle" fill="black">..</text>
		</svg>
		<svg x="0" y="600" width="300" height="100">
			<rect x="0" y="0" width="100%" height="50%" fill="#9fc9a7" stroke="black" stroke-width="5"/>
			<text x="50%" y="30%" font-size="20" font-weight="bold" text-anchor="middle" fill="black">r15</text>
		</svg>
	</svg>

</svg>
